<?xml version="1.0" encoding="UTF-8" standalone="no"?>
 <svg
   xmlns:dc="http://purl.org/dc/elements/1.1/"
   xmlns:cc="http://creativecommons.org/ns#"
   xmlns:rdf="http://www.w3.org/1999/02/22-rdf-syntax-ns#"
   xmlns:svg="http://www.w3.org/2000/svg"
   xmlns="http://www.w3.org/2000/svg"
   xmlns:sodipodi="http://sodipodi.sourceforge.net/DTD/sodipodi-0.dtd"
   xmlns:inkscape="http://www.inkscape.org/namespaces/inkscape"
   enable_background="new 0 0 2000 1001"
   height="1001px"
   pretty_print="False"
   style="stroke-linejoin: round; stroke:#000; fill: none;"
   version="1.1"
   viewBox="0 0 2000 1001"
   width="2000px"
   id="svg2"
   inkscape:version="0.48.4 r9939"
   sodipodi:docname="world.svg">
  <sodipodi:namedview
 	 pagecolor="#ffffff"
	 bordercolor="#666666"
	 borderopacity="1"
	 objecttolerance="10"
	 gridtolerance="10"
	 guidetolerance="10"
	 inkscape:pageopacity="0"
	 inkscape:pageshadow="2"
	 inkscape:window-width="1920"
	 inkscape:window-height="1137"
     id="namedview231"
     showgrid="false"
     inkscape:zoom="1.144"
     inkscape:cx="593.00732"
     inkscape:cy="460.46398"
     inkscape:window-x="1192"
     inkscape:window-y="118"
     inkscape:window-maximized="1"
     inkscape:current-layer="svg2" />
  <defs
     id="defs4">
    <style
       type="text/css"
       id="style6">path { fill-rule: evenodd; }</style>
  </defs>
  <metadata
     id="metadata8">
    <views
       id="views10">
      <view
         h="1001"
         padding="0"
         w="2000"
         id="view12">
        <proj
           flip="auto"
           id="robinson"
           lon0="100.0" />
        <bbox
           h="2233.1"
           w="5271.17"
           x="-2635.59"
           y="-1308.06"
           id="bbox15" />
      </view>
    </views>
    <rdf:RDF>
      <cc:Work
         rdf:about="">
        <dc:format>image/svg+xml</dc:format>
        <dc:type
           rdf:resource="http://purl.org/dc/dcmitype/StillImage" />
        <dc:title />
      </cc:Work>
    </rdf:RDF>
  </metadata>
  <path 
     d="m 116.7,450.7 2,-0.9 2.5,-1.4 0.2,-0.4 -0.9,-2.2 -0.7,-0.8 -0.8,-0.6 -1.9,-1.1 -0.4,-0.1 -0.4,0.6 0,1.3 -1.2,1 -0.4,0.7 0.4,2.3 -0.6,1.8 1.2,0.9 1,-1.1 z m -0.6,-9.9 0.6,-0.7 -1.2,-1 -1.8,-0.6 -0.7,0.5 0,0.4 0.5,0.5 0.6,1.4 2,-0.5 z m -3,-3.4 -2.6,-0.2 -0.6,0.7 2.9,0.2 0.3,-0.7 z m -4.7,-0.9 -1.1,-2.1 -0.3,-0.4 -1.7,0.9 0.1,0.2 0.4,1.5 1.8,0.2 0.4,0.1 0.4,-0.4 z m -8.3,-4.2 0.3,-1.5 -1.3,-0.1 -1,0.6 -0.4,0.5 1.6,1.1 0.8,-0.6 z m 412.1,-173.2 -1.6,0 -1.3,2.4 -10.1,0 -16.8,0 -16.7,0 -14.8,0 -14.7,0 -14.5,0 -15,0 -4.8,0 -14.6,0 -13.9,0 -1.6,5.1 -2.4,5.1 -2.3,1.6 1.1,-5.9 -5.8,-2.1 -1.4,1.2 -0.4,2.9 -1.8,5.4 -4.2,8.3 -4,5.6 -4,5.6 -5.4,5.8 -1.1,4.7 -2.8,5.3 -3.9,5.2 1,3.4 -1.9,5.2 1.5,5.4 1.3,2.2 -0.8,1.5 0.4,9 2.5,6.5 -0.8,3.5 1,1 4.6,0.7 1.3,1.7 2.8,0.3 -0.1,1.9 2.2,0.7 2.1,3.7 -0.3,3.2 6.3,-0.5 7,-0.7 -1,1.3 7.1,3.1 10.7,4.4 10.7,0 4.3,0 0.8,-2.6 9.3,0 1.3,2.2 2.1,2 2.4,2.8 0.8,3.3 0.4,3.5 2.2,1.9 4,1.9 4.8,-5 4.4,-0.1 3.1,2.5 1.6,4.4 1,3.7 2.4,3.6 0.2,4.5 0.8,3 3.9,2 3.6,1.4 2.1,-0.2 -0.6,-2.2 0.4,-3.1 1,-4.4 1.9,-2.8 3.7,-3.1 6,-2.7 6.1,-4.7 4.9,-1.5 3.5,-0.4 3.5,1.4 4.9,-0.8 3.3,3.4 3.8,0.2 2.4,-1.2 1.7,0.9 1.3,-0.8 -0.9,-1.3 0.7,-2.5 -0.5,-1.7 2.4,-1 4.2,-0.4 4.7,0.7 6.2,-0.8 3,1.5 2,3 0.9,0.3 6.1,-2.9 1.9,1 3,5.3 0.8,3.5 -2,4.2 0.4,2.5 1.6,4.9 2,5.5 1.8,1.4 0.4,2.8 2.6,0.8 1.7,-0.8 2,-3.9 0.7,-2.5 0.9,-4.3 -1.2,-7.4 0.5,-2.7 -1.5,-4.5 -0.7,-5.4 0.1,-4.4 1.8,-4.5 3.5,-3.8 3.7,-3 6.9,-4.1 1.3,-2.2 3.3,-2.3 2.8,-0.4 4.4,-3.8 6,-1.9 4.6,-4.8 0.9,-6.5 0.1,-2.2 -1.4,-0.4 1.5,-6.2 -3,-2.1 3.2,1 0,-4.1 1.9,-2.7 -1,5.3 2,2.5 -2.9,4.4 0.4,0.2 4.4,-5.1 2.4,-2.5 0.6,-2.5 -0.9,-1.1 -0.1,-3.5 1.2,1.6 1.1,0.4 -0.1,1.6 5.2,-4.9 2.5,-4.5 -1.4,-0.3 2.1,-1.8 -0.4,0.8 3.3,0 7.8,-1.9 -1.1,-1.2 -7.9,1.2 4.8,-1.8 3.1,-0.3 2.4,-0.3 4.1,-1.1 2.4,0.1 3.8,-1 1,-1.7 -1.1,-1.4 -0.2,2.2 -2.1,-0.1 -0.6,-3.3 1.1,-3.3 1.4,-1.3 3.9,-3.7 5.9,-1.8 6,-2.1 6.3,-3 -0.2,-2 -2.1,-3.5 2.8,-8.5 -1.5,-1.8 -3.7,1.1 -1.1,-1.7 -5.5,4.7 -3.2,4.9 -2.7,2.8 -2.5,0.9 -1.7,0.3 -1,1.6 -9.3,0 -7.7,0 -2.7,1.2 -6.7,4.2 0.2,0.9 -0.6,2.4 -4.6,2 -3.9,-0.5 -4,-0.2 -2.6,0.7 -0.3,1.8 0,0 -0.1,0.6 -5.8,3.7 -4.5,1.8 -2.9,0.8 -3.7,1.7 -4,0.9 -2.5,-0.3 -2.7,-1.3 2.7,-2.4 0,0 2,-2.2 3.7,-3.4 0,0 0,0 0.7,-2.5 0.5,-3.5 -1.6,-0.7 -4.3,2.8 -0.9,-0.1 0.3,-1.5 3.8,-2.5 1.6,-2.8 0.7,-2.8 -2.7,-2.4 -3.7,-1.3 -1.7,2.4 -1.4,0.6 -2.2,3.1 0.4,-2.1 -2.6,1.5 -2.1,2 -2.6,3.1 -1.3,2.6 0.1,3.8 -1.8,4 -3.3,3 -1.4,0.9 -1.6,0.7 -1.8,0 -0.3,-0.4 -0.1,-3.3 0.7,-1.6 0.7,-1.5 0.6,-3 2.5,-3.5 2.9,-4.3 4.6,-4.7 -0.7,0 -5.4,4 -0.4,-0.7 2.9,-2.3 4.7,-4 3.7,-0.5 4.4,-1.3 3.7,0.7 0.1,0 4.7,-0.5 -1.5,-2.5 0,0 -1.2,-0.2 0,0 0,0 -1.4,-0.3 -0.4,-1.7 -5.1,0.5 -5,1.4 -2.5,-2.3 -2.5,-0.8 3.1,-3.3 -5.3,2 -4.9,2.1 -4.6,1.5 -2.1,-2.1 -5.5,1.3 0.4,-0.9 4.6,-2.6 4.7,-2.5 5.9,-2.1 0,0 0,0 -5.3,-1.6 -4.4,0.8 -3.8,-1.9 -4.6,-1 -3.2,-0.4 -1,-1 0.8,-3.4 z m -240.6,-46.9 6.9,-2.8 0,-1.8 -2.6,-0.4 -3.4,0.9 -6.4,2.1 -2.2,2.7 0.7,1.6 7,-2.3 z m -38.7,-16.4 2.3,-2.3 -2.9,-0.5 -5.7,1 0.8,1.6 1.6,1.1 3.9,-0.9 z m 1.2,-22.3 -3.1,2.2 0.4,0.5 4.2,-0.4 0.3,1.1 1.7,1.2 4.9,-1.2 1.2,-0.6 -3.3,-0.8 -1.6,-1.5 -3.4,0.6 -1.3,-1.1 z m 124.9,-40.2 -4.4,-1.1 -10.2,2.8 -3.2,-0.3 -11,2.3 -4.8,0.6 -7.8,2.5 -4.8,2.6 -8.6,2.5 -7.6,0.1 -6.3,2.9 3.2,1.7 0.7,2.3 -0.8,2.7 2.3,2.1 -1.2,3.5 -9.2,0.2 4.3,-2.8 -3.4,0 -13.1,2.7 -9.1,2.3 1,3.3 -1.2,2.2 4.5,1.4 6.9,-0.7 1.8,1.3 2.9,-1.3 6.1,-1.2 2.7,0 -5.9,2.1 1.1,1 -2.5,2.6 -5.5,1.8 -2.5,-0.5 -7,2.7 -1.8,-0.9 -4.1,0.4 -5.3,3 -7.6,3.1 -5.8,3.4 0.3,2.4 -4,3.3 1.4,1.4 0.5,2.7 7.2,-1.1 0.4,2.1 -3.3,2.1 -3.6,3.5 2.8,0 7.2,-2.3 -1.6,2.9 3.6,-2.1 -0.4,3 4.8,-2.2 0.4,1.1 7.2,-1.8 -6.2,3.4 -5.7,4.5 -5.7,2.1 -2.3,1.2 -10.3,3.6 -4.9,2.4 -6.5,0.7 -8.5,3.3 -6.6,1.8 -8.1,2.8 -0.4,1 10,-1.7 6,-2 6.9,-2 6.1,-1.7 2.8,0.5 8.1,-2.6 4.5,-2.8 10.5,-3.1 3.9,-2.6 6.6,-1.8 7.6,-2.5 8.9,-4.2 -0.2,-2.9 11.1,-4.1 7.4,-3.9 9.2,-3.2 -0.4,1.4 -6.7,1.8 -8.3,5.7 -3.2,3.5 6.4,-1.3 6.1,-1.9 6.5,-1.3 2.9,-0.3 3.5,-4.1 6.3,-1.2 2.6,2.5 6,2.7 6.7,-0.5 5.7,2 3.2,1.1 3.3,6.1 3.7,1.7 7.1,0.2 4.1,0.4 -2.7,5.5 1.6,4.9 -3.3,5.2 2.5,1.9 0.6,2.2 0,0 5.1,-2.9 3.1,-3.7 -4.6,-3.8 1.5,-6.8 1.1,-4.2 -1.7,-2.7 -0.7,-2.4 0.5,-3 -6.4,1.9 -7.6,3.3 -0.2,-3.9 -0.6,-2.6 -2.7,-1.6 -4.2,-0.1 35.4,-32.4 24.3,-20.2 0,0 0,0 -3.5,-0.7 -4.1,-1.6 -6.5,0.8 -2.2,-0.7 -7.1,-0.5 -6.2,-1.6 -4.8,0.5 -4.9,-0.9 2,-1.2 -6.3,-0.3 -3.3,1 0.5,-2.4 z"
     style="fill:#FF0000;fill-rule:evenodd" />
  <path 
     d="m 444.4,407.8 -3.6,-1.4 -3.9,-2 -0.8,-3 -0.2,-4.5 -2.4,-3.6 -1,-3.7 -1.6,-4.4 -3.1,-2.5 -4.4,0.1 -4.8,5 -4,-1.9 -2.2,-1.9 -0.4,-3.5 -0.8,-3.3 -2.4,-2.8 -2.1,-2 -1.3,-2.2 -9.3,0 -0.8,2.6 -4.3,0 -10.7,0 -10.7,-4.4 -7.1,-3.1 1,-1.3 -7,0.7 -6.3,0.5 0.2,5.7 0.7,5.1 0.7,4.1 0.8,4 2.6,1.8 2.9,4.5 -1,2.9 -2.7,2.3 -2.1,-0.3 -0.6,0.5 2.3,3.7 2.9,1.5 1,1.7 0.9,-0.9 3.1,2.9 2.1,2 0.1,3.4 -1.2,4.7 2.5,1.6 3.3,3.1 2.9,3.6 0.7,3.9 1,0 2.7,-2.3 0.4,-1.2 -1.5,-2.8 -1.6,-2.9 -2.6,-0.2 0.4,-3.4 -0.9,-3 -1,-2.8 -0.5,-5.9 -2.6,-3.2 -0.6,-2.3 -1.2,-1.6 0,-4.1 -1,0.1 -0.1,-2.2 -0.7,-0.5 -0.4,-1.4 -2.7,-4.4 -1.1,-2.6 1,-4.8 0.1,-3 1.8,-2.6 2.4,1.7 1.9,-0.2 3.1,2.5 -0.9,2.4 0.4,4.9 1.5,4.7 -0.4,2 1.7,3.1 2.3,3.4 2.7,0.5 0.3,4.4 2.4,3.1 2.5,1.5 -1.8,4 0.7,1.5 4.1,2.6 1.9,4 4.5,4.9 3.8,6.4 1.3,3.2 0,2.5 1.4,2.9 -0.3,2.2 -1.6,1.6 0.3,1.8 -1.9,0.7 0.8,3.1 2.2,4 5.3,3.6 1.9,2.9 5.4,2 3,0.4 1.2,1.7 4.2,3 5.9,3 4,0.9 4.8,2.9 4,1.2 3.7,1.7 2.9,-0.7 4.8,-2.4 3.1,-0.4 4.4,1.6 2.6,2.1 5.5,6.9 0.4,-1.9 0.8,-1.5 -0.7,-1.2 3.3,-5.2 7.1,0 0.4,-2.1 -0.8,-0.4 -0.5,-1.4 -1.9,-1.5 -1.8,-2.1 2.6,0 0.4,-3.6 5.2,0 5.1,0.1 0.1,-1 0.7,-0.3 0.9,0.8 2.5,-3.9 1,0 1.2,-0.1 1.2,1.6 2,-5 1.2,-2.7 -0.9,-1.1 1.8,-3.9 3.5,-3.8 0.6,-3.1 -1.2,-1.3 -3.4,0.5 -4.8,-0.2 -6,1.5 -4,1.7 -1.2,1.8 -1.2,5.4 -1.8,3.7 -3.9,2.6 -3.6,1.1 -4.3,1.1 -4.3,0.6 -5.1,1.8 -1.9,-2.6 -5.6,-1.7 -1.8,-3.2 -0.7,-3.6 -3,-4.7 -0.4,-5 -1.2,-3.1 -0.5,-3.4 1.1,-3.1 1.8,-8.6 1.8,-4.5 3.1,-5.6 -2.1,0.2 z"
     style="fill:#0000FF;fill-rule:evenodd" />
  <path 
     d="m 527,449.1 -0.1,-0.3 -0.1,0.1 0,0.6 0.5,0 0.2,0 0.3,-0.2 0.6,0 -0.1,-0.2 -0.8,-0.1 -0.1,0.1 -0.2,0.1 -0.2,-0.1 z m 8,-2.3 0,0 -0.1,-0.1 -0.1,0 -0.3,0.1 -0.1,0 -0.1,0 -0.1,0.1 -0.1,0.1 0.2,0 0.4,-0.2 0.2,0 0.1,0 z m 0.8,-0.1 0.5,-0.2 0,0 -0.1,-0.1 -0.1,0 -0.1,0.1 -0.1,0 -0.5,0.3 0.2,0 0.2,-0.1 z"
     style="fill:#00FF00;fill-rule:evenodd" />
  <path 
     d="m 539,427.3 -4.9,-2.1 -4.3,-0.1 -4.7,-0.5 -1.4,0.7 -4.2,0.6 -3,1.3 -2.7,1.4 -1.5,2.3 -3.1,2 2.2,0.6 2.9,-0.7 0.9,-1.6 2.3,-0.1 4.4,-3.3 5.4,0.3 -2.3,1.6 1.8,1.3 7,1 1.5,1.3 4.9,1.7 3.2,-0.2 0.8,3.6 1.7,1.8 3.5,0.4 2.1,1.7 -4.1,3.5 7.9,-0.6 3.8,0.5 3.7,-0.3 3.8,-0.8 0.8,-1.5 -3.9,-2.6 -4,-0.3 0.6,-1.7 -3.1,-1.3 -1.9,0 -3,-2.8 -4.2,-4 -1.8,-1.5 -5.2,0.8 -1.9,-2.4 z"
     style="fill:#770000;fill-rule:evenodd" />
  <path 
     d="m 574.4,437.3 0.2,-0.6 -0.3,-0.1 -0.5,0.7 -0.6,0.3 -0.3,0 -0.7,-0.3 -0.5,0 -0.4,0.5 -0.6,0.1 0.1,0.1 0,0.2 -0.2,0.3 0,0.2 0.1,0.3 1.5,-0.1 1.3,-0.2 0.7,-0.9 0.2,-0.5 z m 0.8,-2 -0.4,-0.3 -0.4,0.3 0.1,0.3 0.7,-0.3 z m 0,-5.8 -0.4,-0.2 -0.3,0.5 0.3,0.1 0.7,-0.1 0.5,0.1 0.5,0.4 0.3,-0.2 -0.1,-0.1 -0.4,-0.3 -0.6,-0.1 -0.2,0 -0.3,-0.1 z m -6.6,1.3 0.7,-0.6 0.7,-0.3 0.9,-1.1 -0.1,-0.9 0.2,-0.4 -0.6,0.1 -0.1,0.3 -0.1,0.3 0.3,0.4 0,0.2 -0.2,0.4 -0.3,0.1 -0.1,0.2 -0.3,0.1 -0.4,0.5 -0.8,0.6 -0.2,0.3 0.4,-0.2 z m 1.2,-3.2 -0.6,-0.2 -0.2,-0.4 -0.4,-0.1 -0.1,0.2 0,0.2 0.1,0.4 0.2,-0.1 0.8,0.4 0.4,-0.3 -0.2,-0.1 z m -4.1,-1.1 0,-0.7 -0.4,-0.5 -0.6,-0.4 -0.1,-1.2 -0.3,-0.7 -0.2,-0.6 -0.4,-0.8 0,0.5 0.1,0.1 0.1,0.6 0.4,0.9 0.1,0.4 -0.1,0.4 -0.4,0.1 -0.1,0.2 0.5,0.3 0.8,0.3 0.5,1.3 0.1,-0.2 z m -4.1,-3.5 -0.5,-0.3 -0.2,-0.3 -0.7,-0.7 -0.3,-0.1 -0.2,0.4 0.4,0.1 0.9,0.7 0.4,0.2 0.2,0 z m 7.3,-4 -0.1,-0.3 -0.1,0 -0.3,0.1 -0.3,0.9 0.3,0 0.5,-0.7 z m -17.6,-1.1 -0.2,-0.3 -0.3,0.2 -0.5,0 -0.2,0.1 -0.4,0 -0.3,0.2 0.4,0.8 0.3,0.3 0.1,1 0.2,0.1 -0.1,0.7 1.1,0.1 0.4,-0.8 0,-0.3 0,-0.1 0,-0.2 0,-0.2 0,-0.9 -0.3,-0.5 -0.4,0.6 -0.4,-0.3 0.6,-0.4 0,-0.1 z m 12.9,0.3 -1,-1.4 0,-0.2 -0.5,-1.5 -0.3,-0.1 -0.1,0.1 -0.1,0.2 0.4,0.4 0,0.4 0.3,0.2 0.4,1.1 0.4,0.4 -0.1,0.3 -0.4,0.3 -0.1,0.2 0.1,0 0.6,-0.1 0.4,0 0,-0.3 z m -10.5,-5.2 0.5,-0.2 0,0 -0.3,-0.2 -0.7,0 -0.4,0.1 -0.2,0.2 0.1,0.1 0.4,0.1 0.6,-0.1 z m -2.4,2 -0.5,-0.6 -0.3,-0.9 -0.2,-0.4 0.1,-0.5 -0.3,-0.4 -0.6,-0.4 -0.3,0.1 0.1,1.1 -0.2,0.6 -0.8,1.1 0.1,0.4 0,0 0.1,0.2 -0.5,0.4 0,-0.3 -0.6,0.1 0.3,0.5 0.6,0.4 0.3,0.1 0.3,-0.2 0,0.5 0.3,0.4 0.1,0.4 0.3,-0.3 0.6,-0.2 0.2,-0.2 0.7,-0.4 0,-0.2 0.1,-0.6 0.1,-0.7 z m 6.7,-5 -0.3,-0.5 -0.1,0.1 -0.1,0.4 -0.3,0.4 0.5,-0.1 0.4,0.1 0.6,0.5 0.7,0.2 0.3,0.6 0.6,0.6 0,0.6 -0.4,0.6 -0.1,0.7 -0.6,0.1 0.1,0.1 0.3,0.3 0.1,0.4 0.2,0.2 0,-0.7 0.3,-0.8 0.4,-1.3 -0.1,-0.3 -0.3,-0.3 -0.7,-0.9 -0.7,-0.3 -0.8,-0.7 z m -8.8,-7.9 -0.5,-0.4 -0.2,0.4 0,0.1 -0.1,0.3 -0.5,0.4 -0.5,0.1 -0.7,-0.6 -0.2,-0.1 0.8,1.1 0.3,0.1 0.4,0 0.9,-0.3 1.6,-0.5 1.7,-0.2 0.1,-0.2 -0.1,-0.3 -0.8,0.2 -1,-0.1 -0.2,0.2 -0.4,0 -0.6,-0.2 z m 6.1,5.2 0.2,-0.3 0.4,-1.8 0.8,-0.6 0.1,-1.2 -0.5,-0.5 -0.4,-0.2 -0.1,-0.2 0.1,-0.2 -0.2,-0.1 -0.3,-0.2 -0.4,-0.6 -0.4,-0.4 -0.7,-0.1 -0.6,-0.1 -0.4,-0.1 -0.5,0.3 0.8,0 1.5,0.3 0.7,1.5 0.5,0.4 0.1,0.4 -0.2,0.4 0,0.4 -0.3,0.5 -0.1,0.8 -0.3,0.4 -0.7,0.5 0.4,0.2 0.3,0.6 0.2,-0.1 z"
     style="fill:#007800;fill-rule:evenodd" />
  <path 
     d="m 578.7,433.1 -0.1,0.4 0,0.2 0.2,0.1 0.6,-0.1 0.1,-0.1 0.2,-0.1 0,-0.1 -0.4,0.1 -0.6,-0.4 z m 3.6,0.6 0.2,-0.2 -0.2,-0.2 -0.7,-0.2 -0.2,0.1 0,0.3 0.6,0 0.3,0.3 0,-0.1 z m -1.1,-0.5 -0.1,-0.1 -0.1,-0.6 -0.5,0 0,0.2 0.1,0.2 0.1,0 0.1,0.2 0.3,0.2 0.1,-0.1 z"
     style="fill:#009999;fill-rule:evenodd" />
  <path 
     d="m 579.6,457.4 0,1.8 1.4,1 2.6,-4.4 2,-0.9 0.6,1.6 2.2,-0.4 1.1,-1.2 1.8,0.3 2.6,-0.2 2.5,1.3 2.3,-2.6 -2.5,-2.3 -2.4,-0.2 0.3,-1.9 -3,0.1 -0.8,-2.2 -1.4,0.1 -3.1,-1.6 -4.4,-0.1 -0.8,1.1 0.2,3.5 -0.7,2.4 -1.5,1.1 1.2,1.9 -0.2,1.8 z"
     style="fill:#FF0000;fill-rule:evenodd" />
  <path 
     d="m 580.6,446.7 -4.6,-1 -3.4,-0.2 -1.4,1.7 3.4,1 -0.3,2.4 2.2,2.8 -2.1,1.4 -4.2,-0.5 -5,-0.9 -0.7,2.1 2.8,1.9 2.7,-1.1 3.3,0.4 2.7,-0.4 3.6,1.1 0.2,-1.8 -1.2,-1.9 1.5,-1.1 0.7,-2.4 -0.2,-3.5 z"
     style="fill:#F76D10;fill-rule:evenodd" />
  <path 
     d="m 600.8,457.3 0,-0.1 0,0 0.1,0 0,-0.1 0.1,-0.1 0,0 0,-0.1 -0.1,0 0,0 -0.3,0 -0.1,0 0,0.1 0,0.1 0.2,0.1 0,0 0,0.1 0.1,0 0,0 z m 13.6,-0.3 0.7,-0.2 0,-0.1 -0.4,-0.1 -0.6,0 -0.5,0.2 0.1,0.2 0.2,0 0.5,0 z m -3.7,-2.2 -0.1,-0.2 -0.2,0 -3.5,-0.1 -1.3,-0.2 -0.3,0.1 -0.3,0.1 -0.1,0.4 -0.2,0.2 -0.3,0.2 0.1,0.3 0.1,0.2 0.2,0.4 -0.1,0.5 -0.2,1 0.3,0.2 0.7,-0.1 0.3,0.1 0.3,0.1 0.4,-0.1 0.4,-0.2 0.9,0.1 0.5,-0.1 0.6,0.3 0.4,-0.1 0.2,0.1 0.3,0 0.6,0 0.9,-0.2 0.8,-0.5 0.3,-0.5 0.4,-0.3 0.6,-0.4 0,-0.9 -0.7,-0.1 -0.6,-0.3 -1.1,-0.1 -0.1,0 0.1,0.2 -0.1,0 -0.2,-0.1 z"
     style="fill:#0000FF;fill-rule:evenodd" />
  <path 
     d="m 619.2,455.1 0.3,-0.2 -0.2,-0.1 -0.4,0 -0.3,0.2 0.1,0.1 0.5,0 z m 1.1,-0.4 0.4,-0.4 -0.5,0.1 -0.2,0.2 0.1,0.1 0.1,0 0.1,0 z m 0.8,-1.8 -0.2,0 -0.5,0 0,0 0.1,0.1 0.3,0 0.3,0.1 0,0 0,-0.2 z"
     style="fill:#FF007E;fill-rule:evenodd" />
  <path 
     d="m 627.1,457.2 0,0 0.2,0.2 0.3,0.1 0.1,-0.1 0,-0.2 -0.6,0 z"
     style="fill:#007800;fill-rule:evenodd" />
  <path 
     d="m 627.9,456.2 0.1,-0.2 -0.2,-0.1 -0.8,0.5 0,0.1 0.9,-0.3 z"
     style="fill:#FFFF00;fill-rule:evenodd" />
  <path 
     d="m 630.2,366.8 0.4,-0.6 -0.1,0 -0.5,0.5 -0.6,0.2 0.1,0.1 0.1,0 0.6,-0.2 z"
     style="fill:#FF0000;fill-rule:evenodd" />
  <path 
     d="m 659,276.7 -0.7,-3 -2.5,1.9 0.5,2.1 5.6,2.6 1.9,-0.4 3.3,-2.5 -4.7,0.1 -3.4,-0.8 z m 14.4,-15.9 0.2,-1.1 -4.1,-2.6 -5.9,-1.6 -1.9,0.6 3.5,2.9 5.7,1.9 2.5,-0.1 z m -305.3,3.7 0.2,-3.4 -3.2,-2.6 -0.4,-2.9 -0.1,-2.1 -4.1,-0.7 -2.4,-0.9 -4.1,-1.4 -1.4,1.5 -0.6,3.3 4.3,1.1 -0.4,1.8 2.9,2.2 0,2.2 6.3,2.8 3,-0.9 z m 336.1,-13.5 3.9,-3.8 1.4,-1.7 -2.1,-0.3 -4.9,2.2 -4.2,3.5 -8.1,9.8 -5.3,3.7 1.6,1.7 -3.8,2.2 0.2,1.9 9.6,0.1 5.4,-0.3 4.4,1.5 -4.4,2.9 2.9,0.2 7.3,-5.4 1.2,0.8 -2.5,5.1 3,1.2 2.3,-0.2 3.5,-5.5 -0.5,-3.9 0.3,-3.3 -3.7,1.1 2.8,-4.6 -4.3,-1.9 -2.7,1.5 -3.9,-1.7 2.4,-2.1 -2.9,-1.3 -3.8,2 4.9,-5.4 z m -356.8,-21.2 -1.9,2 -1.4,2.6 0.9,1.9 -0.6,2.8 0.7,2.8 1.9,0 -0.2,-4.9 7.1,-6.9 -4.9,0.5 -1.6,-0.8 z m 280.9,-47 -0.4,-1.2 -1.7,-0.1 -2.8,1.7 -0.4,0.4 0.1,1.7 1.7,0.5 3.5,-3 z m -9.6,-3.2 0.8,-1.1 -6,-0.1 -4.9,2.7 0,1.5 3,0.2 7.1,-3.2 z m -3.1,-16.6 -2.7,-0.5 -5,5.2 -3.6,4.4 -5.7,2.8 6.3,-0.6 -0.8,3.4 8.2,-3 6.2,-3 0.8,2.6 5.9,1.3 4.9,-1.8 -1.9,-1.8 -3.4,0.4 1.3,-2.7 -3.7,-1.7 -3.4,-1.9 -1.5,-1.5 -2.8,0.9 0.9,-2.5 z m 44.6,-8.2 3.7,-1.7 1,-0.7 1.4,-2.3 -2.3,-1.5 -4.2,0.7 -3.8,3.1 -0.7,2.6 4.9,-0.2 z m -73.8,-10.7 -0.8,-2 -0.3,-1 -1.6,-1 -3,-1.5 -4.9,2.3 -5,1.7 3.5,2.4 3.8,-0.6 4.1,1.6 4.2,-1.9 z m 22.4,-2.1 -6.6,-1 5.7,-2.6 -0.4,-6 -1.9,-2.3 -4.5,-0.8 -8.1,3.8 -5.5,5.8 2.9,2.1 1.6,3.3 -6.3,5.5 -3.2,-0.2 -6.2,4.4 4.2,-5.2 -4.8,-1.8 -4.5,0.9 -2.4,3.4 -5.9,-0.1 -7.2,0.8 -5.1,-2.4 -5,0.4 -1.5,-2.9 -2.1,-1.3 -3.8,0.5 -5.2,0.3 -4.4,1.8 2,2.3 -7,2.8 -1.4,-3.3 -4.4,1 -11.8,0.6 -6.4,-1.2 8.5,-2.6 -2.8,-2.8 -4.4,0.4 -4.7,-1 -7.5,-1.9 -3.8,-2.3 -4.5,-0.3 -3.3,1.6 -5.9,0.9 3.9,-4.1 -9.4,3.6 -1.4,-4.7 -2.1,-0.6 -3.8,2.5 -4.5,1.2 -0.2,-2.2 -8.2,1.4 -8.8,2.3 -5.2,-0.6 -7,1.6 -6.2,2.3 -3.7,-0.5 -3.3,-2.6 -5.9,-1.3 0,0 -24.3,20.2 -35.4,32.4 4.2,0.1 2.7,1.6 0.6,2.6 0.2,3.9 7.6,-3.3 6.4,-1.9 -0.5,3 0.7,2.4 1.7,2.7 -1.1,4.2 -1.5,6.8 4.6,3.8 -3.1,3.7 -5.1,2.9 0,0 -2.5,3.1 2.1,4.4 -3.1,4.9 4.1,2.6 -3.6,3.7 -1.3,5.5 6.9,2.5 1.6,2.7 5.4,6.1 0.7,0 13.9,0 14.6,0 4.8,0 15,0 14.5,0 14.7,0 14.8,0 16.7,0 16.8,0 10.1,0 1.3,-2.4 1.6,0 -0.8,3.4 1,1 3.2,0.4 4.6,1 3.8,1.9 4.4,-0.8 5.3,1.6 0,0 3.2,-2.4 3.2,-1 1.8,-1.5 1.5,-0.8 4,1.2 3.3,0.2 0.8,0.8 0.1,3.5 5.2,1 -1.7,1.7 1.2,1.9 -1.9,2.3 1.8,0.8 -1.9,2.1 0,0 1.2,0.2 1.3,-0.9 0.5,1.4 3.4,0.7 3.8,0.1 3.8,0.6 4,1.2 0.8,2 1.4,4.7 -2.4,2 -3.8,-0.8 -1,-3.8 -0.9,3.9 -3.8,3.4 -0.8,2.9 -1.1,1.7 -4.1,2 0,0 -3.7,3.4 -2,2.2 2.7,0.4 4.5,-2 2.9,-1.7 1.6,-0.3 2.6,0.6 1.7,-0.9 2.8,-0.8 4.7,-0.8 0,0 0,0 0.3,-1.8 -0.3,0.1 -1.7,0.3 -1.8,-0.6 2.3,-2.1 1.9,-0.7 3.9,-0.9 4.6,-0.9 1.8,1.2 1.9,-1.4 1.9,-0.8 0.9,0.4 0.1,0.1 6.7,-4.2 2.7,-1.2 7.7,0 9.3,0 1,-1.6 1.7,-0.3 2.5,-0.9 2.7,-2.8 3.2,-4.9 5.5,-4.7 1.1,1.7 3.7,-1.1 1.5,1.8 -2.8,8.5 2.1,3.5 5.9,-0.8 8.1,-0.2 -10.4,5.1 -1.5,5.2 3.7,0.5 7.1,-4.5 5.8,-2.4 12.2,-3.7 7.5,-4.1 -2.6,-2.2 1,-4.5 -7.1,7 -8.6,0.8 -5.5,-3.1 -0.1,-4.6 0.6,-6.8 6.1,-4.1 -3.3,-3.1 -7.6,0.6 -12.1,5.2 -10.9,8.2 -4.6,1 7.8,-5.7 10.1,-8.3 7.2,-2.7 5.7,-4.4 5.2,-0.5 7.3,0.1 10,1.3 8.6,-1 7.8,-5.1 8.7,-2.2 4.2,-2.1 4.2,-2.3 2,-6.8 -1.1,-2.3 -3.4,-0.8 0,-5.1 -2.3,-1.9 -6.9,-1.6 -2.8,-3.4 -4.8,-3.4 3.4,-3.7 -2,-7.1 -2.6,-7.5 -1,-5.2 -4.3,2.7 -7.4,6.5 -8.1,3.2 -1.6,-3.4 -3.7,-1 2.2,-7.3 2.6,-4.9 -7.7,-0.5 -0.1,-2.2 -3.6,-3.3 -3,-2 -4.5,1.5 -4.2,-0.5 -6.6,-1.6 -3.9,1.3 -3.8,9 -1,5.3 -8.8,6.1 3.1,4.5 0.5,5 -1.7,4 -4.7,4.1 -7.5,4.2 -9,2.8 1.7,3.2 -2.2,9.6 -5.6,6.3 -4.6,1.9 -4.4,-5.8 -0.1,-6.8 1.7,-6 3.6,-5.2 -4.8,-0.6 -7.5,-0.4 -3.6,-2.5 -4.8,-1.6 -1.7,-2.9 -3.3,-2.2 -7,-2.6 -7.1,1.2 0.7,-4.5 1.5,-5.5 -6,-1 4.9,-6.8 4.9,-4.6 9.4,-6.5 8.6,-4.6 5.6,-0.7 2.9,-3.7 5.1,-2.4 6.4,-0.4 7.7,-3.8 2.9,-2.4 7.4,-4.7 3.2,-2.8 3.2,1.7 6.5,-0.9 10.8,-3.8 2.3,-2.7 -0.8,-2.9 5,-2.9 1.7,-2.7 -3.5,-2.6 -5.4,-0.8 -5.5,-0.4 -4.6,5.9 -6.5,4.6 -7.2,4 -1.3,-3.7 4.2,-4 -2.2,-3.5 -8.7,4.2 4.3,-5.5 z m -75.5,-18.9 -2.8,-1 -14.1,3.2 -5.1,2 -7.8,3.9 5.4,1.4 6.2,-0.1 -11.5,2.1 0,1.9 5.6,0.1 9,-0.4 6.5,1.2 -6.2,1 -5.5,-0.3 -7.1,0.9 -3.3,0.6 0.6,4.2 4.2,-0.6 4.1,1.5 -0.3,2.5 7.8,-0.5 11.2,-0.8 9.4,-1.8 5,-0.4 5.7,1.5 6.7,0.8 3.1,-1.9 -0.7,-2.1 7,-0.4 2.6,-2.4 -5,-2.5 -4.2,-2.6 2.4,-3.6 2.7,-5.1 -2.2,-2 -3,-0.9 -4.2,0.8 -2.8,5.3 -4.3,2.1 2.2,-5.1 -1.7,-1.7 -7.3,2.7 -2.6,-2.6 -10.4,1.5 4.7,-2.4 z m 39.1,-1.5 -1.7,-1.1 -5.4,0.2 -2.1,0.7 2.2,3.6 7,-3.4 z m 107.7,1.6 -4.4,-2.8 -8.4,-0.5 -2.1,0.3 -1.7,1.8 2,2.8 0.9,0.3 4.8,-0.7 4.1,0.1 4.1,0.1 0.7,-1.4 z m -39.4,-0.3 5.7,-3.2 -11.2,1.3 -5.8,2.1 -7.1,4.6 -3.3,5.2 5.6,0.1 -6.1,2.3 1.8,1.9 5.9,0.8 7.3,1.5 13.8,1.2 7.9,-0.6 3.2,-1.6 2,1.8 3.3,0.3 2,3.3 -3.5,1.4 7.1,1.8 4.6,2.6 0.5,1.9 -0.4,2.4 -8.6,5.4 -3.2,2.7 0.2,2 -9.2,0.7 -8,0.1 -5.4,4.2 2.4,1.9 13,-0.9 0.9,-1.6 4.7,2.7 4.7,2.9 -2.4,1.6 3.8,2.8 7.6,3.3 10.7,2.3 0.3,-2 -2.8,-3.5 -3.5,-4.9 8.5,4.6 4.7,1.5 3.6,-4.1 0,-5.6 -1,-1.5 -4.4,-2.5 -2.7,-3.3 2.3,-3.2 5.8,-0.7 3.8,5.4 4,2.4 10.7,-6.5 3.3,-3.9 -6.4,-0.3 -3.2,-5.1 -5.9,-1.2 -7.7,-3.5 9,-2.5 -0.8,-5 -2.2,-2.1 -8.3,-2.1 -1.9,-3.3 -8.2,1.2 1.1,-2.3 -3.6,-2.5 -6.8,-2.6 -5.2,2.1 -9,1.5 3.3,-3.4 -2.3,-5.3 -11.6,2.1 -7.1,4.1 -0.3,-3.2 z m -50,-3.4 -7.1,2.4 0.9,3.4 -7.4,-0.7 -1.7,1.7 5.8,3.9 0.9,2 3.4,0.5 8.4,-2 5.1,-4.7 -3.8,-2.2 6,-2.4 0.5,-1.5 -7.5,0.6 -3.5,-1 z m 22.3,5.4 5.6,-1 10,-4.5 -6.1,-1.2 -7.8,-0.2 -5.2,1.4 -4.2,2.1 -2.5,2.6 -1.8,4.5 4.3,0.2 7.7,-3.9 z m -114.7,7.2 2.6,-2.3 9.1,-3.6 13.8,-3.6 6.4,-1.3 -1.6,-2.1 -1.9,-1.5 -9.4,-0.2 -4.1,-1.1 -14,0.8 -0.3,3.1 -7.6,3.3 -7.4,3.8 -4.3,2.2 5.9,2.7 -0.6,2.3 13.4,-2.5 z m 124.1,-18.3 0.3,-1.6 -1.4,-1.7 -6.9,1.3 -4.4,2.2 3.2,1.3 5.1,0.4 4.1,-1.9 z m -8.7,-8.6 -1.1,0.7 -4.8,-0.3 -7.6,1.6 -3.8,-0.1 -4.3,3.8 6.6,-0.4 -3.4,2.9 3.2,0.8 6.8,-0.5 5.8,-3.7 2.8,-2.5 -0.2,-2.3 z m -39.1,2.5 1.8,-2.3 -3.1,-0.5 -5.7,1.7 -0.7,4.7 -6.1,-0.4 -2.8,-2.9 -8.2,-1.6 -5.4,1.4 -11.6,4.8 4.1,0.8 17.8,-0.5 -10.6,2.2 -1.5,1.6 5.9,-0.1 12.2,-2.2 13.8,-0.8 5.1,-2.3 2.3,-2.4 -3.7,-0.2 -4.3,0.8 0.7,-1.8 z m 55.2,-4.3 -7.1,-0.3 -3.8,2 2.6,1.5 7,0.6 1.4,2.1 -2.2,2.4 -1.5,2.8 8.5,1.6 5.5,0.6 8,-0.1 11.6,-0.8 4.3,0.6 6.7,-1 3.5,-1.4 1,-2 -2.3,-1.9 -5.8,-0.3 -8,0.4 -7,1.1 -5.1,-0.4 -4.8,-0.3 -1.2,-1.1 -3.1,-1.1 2.8,-1.9 -1.4,-1.6 -7.3,0.1 -2.3,-1.6 z m -75,-2.6 -6,0.7 -5.5,-0.1 -12.1,3.1 -11.6,3.7 0,0 3.6,1 7,-0.7 9.8,-2.1 3.8,-0.3 5.2,-1.6 5.8,-3.7 z m 80.5,0.6 1,-0.5 -1.5,-0.9 -7.2,-0.1 -0.6,1.3 6.4,0.3 1.9,-0.1 z m -58.4,-0.8 3.2,-1.4 -4.1,-0.8 -5.9,0.5 -5.1,1.5 3.3,1.5 8.6,-1.3 z m 7.8,-4.2 -3.3,-0.9 -1.6,-0.2 -5.7,1.3 -1,0.7 6,0 5.6,-0.9 z m 46.4,2.5 3,-1.7 -2.3,-1.6 -1.7,-0.3 -4.4,-0.1 -2.1,1.8 -0.7,1.8 1.6,1.1 6.6,-1 z m -13.7,-1.2 0.1,-2.2 -7.4,-1.7 -6.1,-0.6 -2.1,1.7 2.8,1.1 -5.3,1.4 7.7,0.2 4,1.5 5.2,0.5 1.1,-1.9 z m 53.7,-6.1 0.6,-2.8 -4.7,-0.8 -4.7,-0.9 -1.6,-2.2 -8.2,0.2 0.3,0.9 -3.9,0.3 -4.1,1.3 -4.9,1.9 -0.3,1.9 2,1.5 6.5,0 -4.3,1.2 -2.1,1.6 1.6,1.9 6.7,0.6 6.8,-0.4 10.5,-3.4 6.4,-1.3 -2.6,-1.5 z m 78.5,-13.8 -7,-0.2 -6.9,-0.3 -10.2,0.6 -1.4,-0.4 -10.3,0.2 -6.4,0.4 -5.1,0.6 -5,2 -2.3,-1 -3.9,-0.2 -6.7,1.4 -7.4,0.6 -4.1,0.1 -6,0.8 -1.1,1.3 2.5,1.2 0.8,1.6 4.4,1.5 12.4,-0.3 7.2,0.5 -7.2,1.5 -2.2,-0.4 -9.3,-0.2 -1.1,2.2 3,1.7 -2.8,1.6 -7.5,1.1 -4.9,1.7 4.8,0.9 1.7,3 -7.5,-2 -2.5,0.3 -2,3.4 -8,1.1 -2,2.3 6.7,0.3 4.9,0.6 11.7,-0.8 8.4,1.4 12.6,-3 1,-1.1 -6.4,0.2 0.5,-1.1 6.5,-1.4 3.6,-1.9 6.8,-1.3 5,-1.6 -0.8,-2.2 3.3,-0.8 -4.3,-0.6 11.1,-0.4 3.2,-0.9 7.9,-0.8 9.3,-3.5 6.8,-1.1 10.3,-2.5 -7.4,0 3.9,-0.9 9,-0.8 9.7,-1.6 1.1,-1.1 -5.2,-1 -6.7,-0.4 -8.5,-0.3 z"
     style="fill:#FF007E;fill-rule:evenodd" />
  <path 
     d="m 879.6,395.2 -0.2,-0.2 -0.7,0.5 -0.6,0 0.1,0.2 0.1,0.2 0.7,0.4 0.6,-1.1 z m 13.5,-2.1 0,-0.1 -0.1,0 -0.1,0.1 -1.3,-0.1 -0.2,0.6 -0.5,0.4 0,0.7 0.5,0.7 0.3,0.1 0.5,0.1 0.7,-0.4 0.2,-0.4 0.1,-0.8 -0.1,-0.4 0,-0.5 z m -9.7,0.8 0.5,-0.4 0,-0.2 -0.1,-0.3 -0.5,-0.3 -0.2,0 -0.2,0.2 -0.2,0.4 0.3,0.5 0.2,0.1 0.2,0 z m 4.7,-2.3 1.2,-1 0,-0.3 -1,0.1 -1.1,1 -0.3,0.1 -1,0.1 -0.5,0 -0.4,0.2 0.2,0.3 0.4,1 0.7,0.9 0.6,-0.2 0.3,-0.2 0.4,-0.6 0.5,-1.4 z m 11.6,1.3 1.5,-0.5 0.3,-1 0.3,-1.1 0,-0.7 -0.2,-0.3 -0.1,0 -0.4,0 -0.3,0.2 -0.1,0.6 -0.7,1.3 -0.5,1.2 -0.7,0.6 -0.7,0.2 0.1,0.1 0.7,0.1 0.8,-0.7 z m -19.7,-2 0.5,-0.5 0.1,-0.3 -0.1,-0.5 0.2,-0.2 -0.1,-0.4 -0.3,-0.4 -0.7,0 -0.4,0.6 0.6,1.2 0.1,0.5 0.1,0 z m 22.4,-2.7 0.9,-0.3 0.5,-0.3 0.1,-0.9 0.2,-0.3 -0.2,-0.3 -0.2,0.2 -0.2,0.4 -0.6,0.2 -0.8,0.4 -0.2,0.3 -0.2,0.9 0.4,0.1 0.3,-0.4 z"
     style="fill:#770000;fill-rule:evenodd" />
  <path 
     d="m 915.7,158.6 -6.9,-0.4 -7.3,2.9 -5.1,-1.5 -6.9,3 -5.9,-3.8 -6.5,0.8 -3.6,3.7 8.7,1.3 -0.1,1.6 -7.8,1.1 8.8,2.7 -4.6,2.5 11.7,1.8 5.6,0.8 3.9,-1 12.9,-3.9 6.1,-4.2 -4.4,-3.8 1.4,-3.6 z"
     style="fill:#007800;fill-rule:evenodd" />
  <path 
     d="m 929.6,396.2 -0.8,0 0,0 0.1,3.4 -3.4,0.2 -1.8,1.5 -2.5,0 -1.9,-0.9 -4.6,0.7 -1.9,5 -1.7,0.4 -2.8,8.1 -7.8,6.8 -2,8.8 -2.3,2.9 -0.7,2.3 -12.4,0.5 -0.1,0 -0.3,2.7 1.2,-2.2 21.6,0.1 -0.9,-9.2 1.4,-3.3 5.2,-0.5 0.2,-16.3 17.9,0.3 0.2,-9.7 0.1,-1.2 0,-0.4 z"
     style="fill:#00FF00;fill-rule:evenodd" />
  <path 
     d="m 937.6,335.9 -0.4,-2.1 2,-2.5 0.8,-1.7 -1.8,-1.9 1.6,-4.3 -2,-3.8 2.2,-0.5 0.3,-3 0.9,-0.9 0.2,-4.9 2.4,-1.7 -1.3,-3.1 -3,-0.2 -0.9,0.8 -3,0 -1.2,-3.1 -2.1,0.9 -1.9,1.6 0.1,2.1 0.9,2.2 0.1,2.7 -1.3,3.8 -0.4,2.5 -2.2,2.3 -0.6,4.2 1.2,2.4 2.3,0.6 0.4,4 -1,5.1 2.8,-0.7 2.7,0.9 2.2,-1.7 z"
     style="fill:#00FF00;fill-rule:evenodd" />
  <path 
     d="m 947,186.9 0,-0.3 -0.1,-0.3 0,-0.2 -0.1,0 -0.5,-0.1 -0.1,-0.2 -0.1,0 0,0.2 0.1,0.4 0.5,0.4 0.3,0.2 0.1,0 -0.1,-0.1 z m 0.5,-2.1 0,-0.1 -0.2,-0.2 -0.5,-0.2 -0.2,-0.1 -0.2,0.1 0,0.2 0.1,0.1 0.4,0.1 0.4,0.3 0.1,0 0.1,-0.2 z m -2.4,-1.9 -0.2,-0.1 -0.5,0.1 -0.3,0 0.1,0.3 0.6,0.2 0.3,0 0.3,0 0.2,-0.1 -0.1,-0.2 -0.4,-0.2 z m 2.5,-0.5 -0.8,-0.2 -0.6,-0.3 -1,0.1 0.7,1.1 0.8,0.7 0.4,0.2 0,-0.1 0,-0.2 -0.4,-0.5 -0.1,-0.1 0,-0.1 0.1,-0.1 0.2,0 0.3,0.2 0.2,0 0.2,-0.7 z m 1,-0.2 -0.3,-0.2 -0.4,-0.4 0,0.5 0,0.3 0,0.1 0.1,0 0.3,0.1 0.3,-0.4 z"
     style="fill:#0000FF;fill-rule:evenodd" />
  <path 
     d="m 947.3,231.7 -3.5,-1.3 -2.9,0.1 1.1,-3.2 -0.8,-3.2 -3.7,2.8 -6.7,4.7 2.1,6.1 -4.2,6.4 6.7,0.9 8.7,-3.6 3.9,-5.4 -0.7,-4.3 z"
     style="fill:#007800;fill-rule:evenodd" />
  <path 
     d="m 949.8,413.3 -20.3,-15.5 -0.2,9.7 -17.9,-0.3 -0.2,16.3 -5.2,0.5 -1.4,3.3 0.9,9.2 -21.6,-0.1 -1.2,2.2 2.8,2.7 1.4,3 -0.7,3.2 0.6,3.2 0.5,6.3 -0.8,5.9 -1.7,3.2 0.4,3.4 2,-2 2.7,0.5 2.8,-1.4 3.1,0 2.6,1.8 3.7,1.7 3.2,4.7 3.6,4.4 1.9,-1.2 1,-3.7 1.8,-0.2 3.8,1.8 3.2,-1.3 2.1,0.4 0.9,-1.4 22.3,-0.1 1.3,-4.4 -1,-0.8 -2.4,-27.5 -2.4,-27.4 8.4,-0.1 z"
     style="fill:#FF007E;fill-rule:evenodd" />
  <path 
     d="m 950,227.5 -4.9,-3.7 -3.9,0.3 0.8,3.2 -1.1,3.2 2.9,-0.1 3.5,1.3 2.7,-4.2 z m 13,-24.3 -5.5,0.5 -3.6,-0.4 -3.7,4.8 -1.9,6.1 2.2,3 0.1,5.8 2.6,-2.8 1.4,1.6 -1.7,2.7 1,1.6 5.7,1.1 0.1,0 3.1,3.8 -0.8,3.5 0,0 -7.1,-0.6 -1,4 2.6,3.3 -5.1,1.9 1.3,2.4 7.5,1 0,0 -4.3,1.3 -7.3,6.5 2.5,1.2 3.5,-2.3 4.5,0.7 3.3,-2.9 2.2,1.2 8.3,-1.7 6.5,0.1 4.3,-3.3 -1.9,-3.1 2.4,-1.8 0.5,-3.9 -5.8,-1.2 -1.3,-2.3 -2.9,-6.9 -3.2,-1 -4.1,-7.1 -0.4,-0.6 -4.8,-0.4 4.2,-5.3 1.3,-4.9 -5,0 -4.7,0.8 5,-6.4 z"
     style="fill:#0000FF;fill-rule:evenodd" />
  <path 
     d="m 965.2,348.4 -2.3,-0.1 -5.5,-1.4 -5,0.4 -3.1,-2.7 -3.9,0 -1.8,3.9 -3.7,6.7 -4,2.6 -5.4,2.9 -3.5,4.3 -0.9,3.4 -2.1,5.4 1.1,7.9 -4.7,5.3 -2.7,1.7 -4.4,4.4 -5.1,0.7 -2.8,2.4 -0.1,0.1 -3.6,6.5 -3.7,2.3 -2.1,4 -0.2,3.3 -1.6,3.8 -1.9,1 -3.1,4 -2,4.5 0.3,2.2 -1.9,3.3 -2.2,1.7 -0.3,3 0.1,0 12.4,-0.5 0.7,-2.3 2.3,-2.9 2,-8.8 7.8,-6.8 2.8,-8.1 1.7,-0.4 1.9,-5 4.6,-0.7 1.9,0.9 2.5,0 1.8,-1.5 3.4,-0.2 -0.1,-3.4 0,0 0.8,0 0.1,-7.5 8.9,-4.7 5.4,-1 4.4,-1.7 2.1,-3.2 6.3,-2.5 0.3,-4.7 3.1,-0.5 2.5,-2.4 7,-1 1,-2.5 -1.4,-1.4 -1.8,-6.7 -0.3,-3.9 -2,-4.1 z"
     style="fill:#009999;fill-rule:evenodd" />
  <path 
     d="m 985.4,301.7 0.1,-0.2 0.1,-0.2 0,-0.1 -0.2,-0.1 -0.7,-0.2 -0.3,-0.1 -0.2,0.1 -0.2,0.2 -0.1,0.3 0.1,0.1 0,0.2 0,0.2 0.1,0.2 0.2,0 0.2,0 0.3,-0.1 0.5,-0.3 0.1,0 z"
     style="fill:#F76D10;fill-rule:evenodd" />
  <path 
     d="m 985,325.7 0,-0.2 -0.5,0 -0.3,-0.4 -0.1,0.2 -0.1,0.2 0,0.2 0.5,0 0.4,0.1 0.1,-0.1 z m -0.8,-1.6 0.3,0 0.6,-0.7 0,-0.3 -0.3,-0.2 -1.1,0.2 -0.2,0.3 0,0.3 -0.3,0.1 -0.1,0.4 0.1,0.2 0.8,0.1 0.2,-0.4 z M 967,296 l -8.2,-0.2 -4.2,0.3 -5.4,-1 -6.8,0 -6.2,-1.1 -7.4,4.5 2,2.6 -0.4,4.4 1.9,-1.6 2.1,-0.9 1.2,3.1 3,0 0.9,-0.8 3,0.2 1.3,3.1 -2.4,1.7 -0.2,4.9 -0.9,0.9 -0.3,3 -2.2,0.5 2,3.8 -1.6,4.3 1.8,1.9 -0.8,1.7 -2,2.5 0.4,2.1 4.8,1 1.4,3.7 2,2.2 2.5,0.6 2.1,-2.5 3.3,-2.3 5,0.1 6.7,0 3.8,-5 3.9,-1.3 1.2,-4.2 3,-2.9 -2,-3.7 2,-5.1 3.1,-3.5 0.5,-2.1 6.6,-1.3 4.8,-4.2 -0.3,-3.5 -6,0.8 -5.7,-2.8 -1.9,1.3 -9.4,-2.8 -2,-2.4 z m 26,22.6 0.1,-0.3 0.1,-0.2 0.1,-0.1 -0.2,-0.2 0,-0.1 0.2,-0.2 -0.2,-0.1 -1.3,0.4 -0.7,0.4 -2.1,1.5 0,0.3 0.1,0.2 0.4,0 0.2,0.4 0.4,-0.4 0.3,-0.1 0.3,0.1 0.3,0.2 0.1,0.6 0.1,0.2 0.6,0.1 0.9,0.4 0.4,-0.2 0.5,-0.3 0.2,-0.6 0.3,-0.5 0.3,-0.5 0.3,-0.4 -0.1,-0.4 -0.3,-0.1 -0.3,-0.1 -0.5,0.2 -0.5,-0.2 z m 6,-0.3 0.1,-0.4 0,-0.1 -0.5,-0.7 -0.9,-0.3 -1,0.1 -0.1,0.1 0,0.4 0.1,0.1 0.6,0.1 1.6,0.7 0.1,0 z"
     style="fill:#FF007E;fill-rule:evenodd" />
  <path 
     d="m 1000.3,450.3 -6.1,0.6 -0.1,-4 -2.6,-1.1 -3.4,-1.8 -1.3,-3 -18.6,-13.8 -18.4,-13.9 -8.4,0.1 2.4,27.4 2.4,27.5 1,0.8 -1.3,4.4 -22.3,0.1 -0.9,1.4 -2.1,-0.4 -3.2,1.3 -3.8,-1.8 -1.8,0.2 -1,3.7 -1.9,1.2 0.2,3.9 1.1,3.7 2.1,1.8 0.4,2.4 -0.3,2 0.3,2.3 0.9,0 1.5,-0.8 0.9,0.2 1.5,1.6 2.4,0.5 1.6,-1.4 1.8,-0.8 1.3,-0.9 1.1,0.2 1.3,1.4 0.6,1.7 2.3,2.7 -1.2,1.6 -0.2,2.1 1.2,-0.6 0.7,0.7 -0.3,1.9 1.7,1.8 0.7,-0.6 1.6,1 4.3,0.1 1,-1.9 1,0.1 1.6,-0.7 0.9,2.7 1.3,-0.8 2.3,-0.9 -0.4,-3.7 1.6,-2.7 -0.2,-2.2 4.5,-5.2 0.8,-4.4 1.6,-1.6 2.7,0.9 2.3,-1.3 0.8,-1.6 4.3,-2.9 1.1,-2 5.2,-2.6 3,-0.9 1.4,1.2 3.6,0 3.6,-0.3 2,-2.2 7.6,-0.6 4.9,-1 0.5,-3.9 3,-4.3 -0.1,-14.6 z"
     style="fill:#FF0000;fill-rule:evenodd" />
  <path 
     d="m 1000.7,246.2 -4.4,1.3 -3.6,-0.5 0,0 -3.8,1.2 0.7,2.2 2.2,0.1 2.4,2.4 3.4,2.9 2.5,-0.4 4.4,2.8 0.4,-3.5 1.3,-0.2 0.4,-4.2 -2.8,-1.4 -3.1,-2.7 z"
     style="fill:#9933ff;fill-rule:evenodd" />
  <path 
     d="m 1005.5,243.9 2.9,0 1.1,-2.3 1,-5.6 -1,-2 -3.9,-0.2 -6.5,2.6 -3.9,8.9 -2.5,1.7 0,0 3.6,0.5 4.4,-1.3 3.1,2.7 2.8,1.4 -1.1,-6.4 z"
     style="fill:#0000FF;fill-rule:evenodd" />
  <path 
     d="m 1007,258.6 0.2,-2.7 -1,-1.4 -1.3,0.2 -0.4,3.5 1.1,0.5 1.4,-0.1 z"
     style="fill:#F76D10;fill-rule:evenodd" />
  <path 
     d="m 1021,336.9 -3.6,0.4 -2.2,-1.5 -5.6,0 -4.9,2.6 -2.7,-1 -8.7,0.5 -8.9,1.2 -5,2 -3.4,2.6 -5.7,1.2 -5.1,3.5 2,4.1 0.3,3.9 1.8,6.7 1.4,1.4 -1,2.5 -7,1 -2.5,2.4 -3.1,0.5 -0.3,4.7 -6.3,2.5 -2.1,3.2 -4.4,1.7 -5.4,1 -8.9,4.7 -0.1,7.5 0,0.4 -0.1,1.2 20.3,15.5 18.4,13.9 18.6,13.8 1.3,3 3.4,1.8 2.6,1.1 0.1,4 6.1,-0.6 7.8,-2.8 15.8,-12.5 18.6,-12.2 -2.5,-4 -4.3,-2.9 -2.6,1.2 -2,-3.6 -0.2,-2.7 -3.4,-4.7 2.1,-2.6 -0.5,-4 0.6,-3.5 -0.5,-2.9 0.9,-5.2 -0.4,-3 -1.9,-5.6 -2.6,-11.3 -3.4,-2.6 0,-1.5 -4.5,-3.8 -0.6,-4.8 3.2,-3.6 1.1,-5.3 -1,-6.2 1,-3.3 z"
     style="fill:#009999;fill-rule:evenodd" />
</svg>